<svg aria-hidden="true" style="position: absolute; width: 0; height: 0; overflow: hidden;" version="1.1"
    xmlns="http://www.w3.org/2000/svg" xmlns:xlink="http://www.w3.org/1999/xlink">
    <defs>
        <symbol id="icon-th-menu" viewBox="0 0 24 24">
            <path d="M19 17h-14c-1.103 0-2 0.897-2 2s0.897 2 2 2h14c1.103 0 2-0.897 2-2s-0.897-2-2-2z"></path>
            <path d="M19 10h-14c-1.103 0-2 0.897-2 2s0.897 2 2 2h14c1.103 0 2-0.897 2-2s-0.897-2-2-2z"></path>
            <path d="M19 3h-14c-1.103 0-2 0.897-2 2s0.897 2 2 2h14c1.103 0 2-0.897 2-2s-0.897-2-2-2z"></path>
        </symbol>
        <symbol id="icon-phone" viewBox="0 0 32 32">
            <path
                d="M10.306 1.538c-0.481-1.163-1.75-1.781-2.963-1.45l-5.5 1.5c-1.087 0.3-1.844 1.287-1.844 2.412 0 15.462 12.537 28 28 28 1.125 0 2.113-0.756 2.413-1.844l1.5-5.5c0.331-1.212-0.288-2.481-1.45-2.962l-6-2.5c-1.019-0.425-2.2-0.131-2.894 0.725l-2.525 3.081c-4.4-2.081-7.963-5.644-10.044-10.044l3.081-2.519c0.856-0.7 1.15-1.875 0.725-2.894l-2.5-6z">
            </path>
        </symbol>
        <symbol id="icon-envelope-solid" viewBox="0 0 32 32">
            <path
                d="M3 4c-1.656 0-3 1.344-3 3 0 0.944 0.444 1.831 1.2 2.4l13.6 10.2c0.713 0.531 1.687 0.531 2.4 0l13.6-10.2c0.756-0.569 1.2-1.456 1.2-2.4 0-1.656-1.344-3-3-3h-26zM0 11v13c0 2.206 1.794 4 4 4h24c2.206 0 4-1.794 4-4v-13l-13.6 10.2c-1.425 1.069-3.375 1.069-4.8 0l-13.6-10.2z">
            </path>
        </symbol>
        <symbol id="icon-tiktok" viewBox="0 0 28 32">
            <path
                d="M28 13.119c-0.009 0-0.020 0-0.031 0-2.868 0-5.521-0.919-7.68-2.48l0.039 0.027v11.17c-0.002 5.609-4.55 10.156-10.159 10.156-5.611 0-10.159-4.549-10.159-10.159s4.548-10.159 10.159-10.159c0.492 0 0.976 0.035 1.449 0.103l-0.054-0.006v5.618c-0.418-0.136-0.9-0.215-1.399-0.215-2.576 0-4.664 2.088-4.664 4.664s2.088 4.664 4.664 4.664c2.576 0 4.664-2.088 4.664-4.664 0-0 0-0 0-0v0-21.836h5.5c-0 0.018-0 0.040-0 0.062 0 0.468 0.042 0.925 0.124 1.37l-0.007-0.046c0.406 2.115 1.638 3.886 3.34 4.996l0.029 0.018c1.178 0.789 2.627 1.259 4.186 1.259 0.001 0 0.001 0 0.002 0h-0z">
            </path>
        </symbol>
        <symbol id="icon-square-instagram" viewBox="0 0 28 32">
            <path
                d="M14 12.666c-1.841 0.001-3.332 1.493-3.332 3.334s1.493 3.334 3.334 3.334 3.334-1.493 3.334-3.334v0c-0.001-1.841-1.494-3.333-3.335-3.334h-0zM21.794 10.104c-0.351-0.872-1.029-1.55-1.878-1.893l-0.023-0.008c-1.313-0.518-4.438-0.402-5.894-0.402s-4.578-0.121-5.894 0.402c-0.872 0.351-1.55 1.029-1.893 1.878l-0.008 0.023c-0.518 1.313-0.402 4.441-0.402 5.896s-0.116 4.579 0.404 5.896c0.351 0.872 1.029 1.55 1.878 1.893l0.023 0.008c1.313 0.518 4.438 0.402 5.894 0.402s4.577 0.121 5.894-0.402c0.872-0.351 1.55-1.029 1.893-1.878l0.008-0.023c0.522-1.313 0.402-4.441 0.402-5.896s0.12-4.579-0.402-5.896zM14 21.125c-2.83 0-5.125-2.295-5.125-5.125s2.295-5.125 5.125-5.125c2.83 0 5.125 2.295 5.125 5.125v0c0 0.002 0 0.004 0 0.006 0 2.827-2.292 5.119-5.119 5.119-0.002 0-0.004 0-0.007 0h0zM19.336 11.856c-0 0-0 0-0.001 0-0.661 0-1.196-0.536-1.196-1.196s0.536-1.196 1.196-1.196c0.661 0 1.196 0.536 1.196 1.196v0c0 0.002 0 0.003 0 0.005 0 0.659-0.534 1.193-1.193 1.194h-0zM25 2h-22c-1.657 0-3 1.343-3 3v0 22c0 1.657 1.343 3 3 3v0h22c1.657 0 3-1.343 3-3v0-22c0-1.657-1.343-3-3-3v0zM23.93 20.125c-0.081 1.602-0.446 3.021-1.616 4.188s-2.587 1.539-4.188 1.616c-1.651 0.093-6.599 0.093-8.25 0-1.602-0.081-3.016-0.447-4.188-1.616s-1.539-2.589-1.616-4.188c-0.093-1.651-0.093-6.601 0-8.25 0.081-1.602 0.442-3.021 1.616-4.188s2.592-1.535 4.188-1.611c1.651-0.093 6.599-0.093 8.25 0 1.602 0.081 3.021 0.447 4.188 1.616s1.539 2.589 1.616 4.191c0.093 1.645 0.093 6.59 0 8.242z">
            </path>
        </symbol>
        <symbol id="icon-facebook" viewBox="0 0 32 32">
            <path
                d="M31.5 16c0-8.563-6.938-15.5-15.5-15.5s-15.5 6.938-15.5 15.5c0 7.736 5.668 14.149 13.078 15.313v-10.832h-3.938v-4.481h3.938v-3.415c0-3.884 2.313-6.030 5.854-6.030 1.696 0 3.47 0.303 3.47 0.303v3.813h-1.955c-1.925 0-2.526 1.195-2.526 2.421v2.909h4.299l-0.688 4.481h-3.611v10.832c7.41-1.164 13.078-7.576 13.078-15.313z">
            </path>
        </symbol>
        <symbol id="icon-circle-xmark-solid" viewBox="0 0 32 32">
            <path
                d="M16 32c8.837 0 16-7.163 16-16s-7.163-16-16-16v0c-8.837 0-16 7.163-16 16s7.163 16 16 16v0zM10.938 10.938c0.588-0.588 1.537-0.588 2.119 0l2.938 2.938 2.937-2.938c0.587-0.588 1.538-0.588 2.119 0s0.587 1.537 0 2.119l-2.938 2.938 2.938 2.937c0.587 0.587 0.587 1.538 0 2.119s-1.538 0.587-2.119 0l-2.938-2.938-2.938 2.938c-0.588 0.587-1.537 0.587-2.119 0s-0.588-1.538 0-2.119l2.938-2.938-2.938-2.938c-0.588-0.588-0.588-1.537 0-2.119z">
            </path>
        </symbol>
        <symbol id="icon-close" viewBox="0 0 32 32">
            <path
                d="M17.253 16l7.369-7.369c0.146-0.17 0.222-0.389 0.213-0.612s-0.101-0.436-0.26-0.594c-0.158-0.158-0.371-0.251-0.594-0.26s-0.443 0.067-0.613 0.213l-7.369 7.369-7.369-7.378c-0.167-0.167-0.394-0.261-0.631-0.261s-0.464 0.094-0.631 0.261c-0.167 0.167-0.261 0.394-0.261 0.631s0.094 0.464 0.261 0.631l7.378 7.369-7.378 7.369c-0.093 0.080-0.169 0.178-0.222 0.288s-0.083 0.23-0.088 0.353c-0.005 0.122 0.016 0.244 0.061 0.359s0.112 0.218 0.199 0.304 0.19 0.154 0.304 0.199c0.114 0.045 0.236 0.065 0.359 0.061s0.243-0.035 0.353-0.088 0.208-0.129 0.288-0.222l7.378-7.369 7.369 7.369c0.17 0.146 0.389 0.222 0.613 0.213s0.436-0.101 0.594-0.26c0.158-0.158 0.251-0.371 0.26-0.594s-0.067-0.442-0.213-0.613l-7.369-7.369z">
            </path>
        </symbol>
        <symbol id="icon-up-arrow" viewBox="0 0 32 32">
            <path
                d="M4.5 19.6l11.2-11.233c0.133-0.133 0.278-0.228 0.433-0.283s0.322-0.084 0.5-0.084c0.178 0 0.345 0.028 0.5 0.084s0.3 0.149 0.433 0.283l11.233 11.233c0.311 0.311 0.467 0.7 0.467 1.167s-0.167 0.867-0.5 1.2c-0.333 0.333-0.722 0.5-1.167 0.5s-0.833-0.167-1.167-0.5l-9.8-9.8-9.8 9.8c-0.311 0.311-0.694 0.467-1.149 0.467s-0.851-0.167-1.184-0.5-0.5-0.722-0.5-1.167c0-0.444 0.167-0.833 0.5-1.167z">
            </path>
        </symbol>
        <symbol id="icon-eye-plus" viewBox="0 0 32 32">
            <path d="M32 4h-4v-4h-4v4h-4v4h4v4h4v-4h4z"></path>
            <path
                d="M26.996 13.938c0.576 0.64 1.1 1.329 1.563 2.062-1.197 1.891-2.79 3.498-4.67 4.697-2.362 1.507-5.090 2.303-7.889 2.303s-5.527-0.796-7.889-2.303c-1.88-1.199-3.473-2.805-4.67-4.697 1.197-1.891 2.79-3.498 4.67-4.697 0.122-0.078 0.246-0.154 0.371-0.228-0.311 0.854-0.482 1.776-0.482 2.737 0 4.418 3.582 8 8 8s8-3.582 8-8c0-0.022-0.001-0.043-0.001-0.065-3.415-0.879-5.947-3.957-5.998-7.635-0.657-0.074-1.325-0.113-2.001-0.113-6.979 0-13.028 4.064-16 10 2.972 5.936 9.021 10 16 10s13.027-4.064 16-10c-0.551-1.101-1.209-2.137-1.958-3.095-0.915 0.537-1.946 0.897-3.046 1.034zM13 10c1.657 0 3 1.343 3 3s-1.343 3-3 3-3-1.343-3-3 1.343-3 3-3z">
            </path>
        </symbol>
        <symbol id="icon-eye-minus" viewBox="0 0 32 32">
            <path d="M20 4h12v4h-12v-4z"></path>
            <path
                d="M27.198 10h-9.198v-3.887c-0.657-0.074-1.324-0.113-2-0.113-6.979 0-13.028 4.064-16 10 2.972 5.936 9.021 10 16 10s13.027-4.064 16-10c-1.169-2.334-2.813-4.378-4.803-6zM13 10c1.657 0 3 1.343 3 3s-1.343 3-3 3-3-1.343-3-3 1.343-3 3-3zM23.889 20.697c-2.362 1.507-5.090 2.303-7.889 2.303s-5.527-0.796-7.889-2.303c-1.88-1.199-3.473-2.805-4.67-4.697 1.197-1.891 2.79-3.498 4.67-4.697 0.122-0.078 0.246-0.154 0.371-0.228-0.311 0.854-0.482 1.776-0.482 2.737 0 4.418 3.582 8 8 8s8-3.582 8-8c0-0.962-0.17-1.883-0.482-2.737 0.124 0.074 0.248 0.15 0.371 0.228 1.88 1.199 3.473 2.805 4.67 4.697-1.197 1.891-2.79 3.498-4.67 4.697z">
            </path>
        </symbol>
        <symbol id="icon-plus" viewBox="0 0 32 32">
            <path d="M17 6V28" stroke-linecap="round" stroke-linejoin="round" stroke-width="2" />
            <path d="M6 17H28" stroke-linecap="round" stroke-linejoin="round" stroke-width="2" />
        </symbol>
        <symbol id="icon-minus" viewBox="0 0 32 32">
            <path d="M6 17H28" stroke-linecap="round" stroke-linejoin="round" stroke-width="2" />
        </symbol>
    </defs>
</svg>